# xmcd CD database file
#
# Track frame offsets:
#	150
#	26185
#	57780
#	86109
#	117992
#	133193
#	149323
#	160666
#	172873
#	186623
#	200347
#	213900
#	227215
#	243302
#	255818
#	270718
#	287149
#	312190
#
# Disc length: 4469 seconds
#
# Revision: 0
# Processed by: cddbd v1.5.2PL0 Copyright (c) Steve Scherf et al.
# Submitted via: CDex 1.70beta2
#
DISCID=06117312
DTITLE=Charlie Parker - Bebop Story Vol 10 1953-54 CD 032
DYEAR=2008
DGENRE=Jazz
TTITLE0=Compulsion
TTITLE1=The Serpent's Tooth
TTITLE2=The Serpent's Tooth
TTITLE3='Round Mifnight
TTITLE4=In The Still Of The Night
TTITLE5=Old Folks
TTITLE6=If I Love You Again
TTITLE7=Chi Chi
TTITLE8=Chi Chi
TTITLE9=I Remember You
TTITLE10=Now's The Time
TTITLE11=Confirmation
TTITLE12=I Get A Kick Out Of You
TTITLE13=Just One Of Those Things
TTITLE14=My Heart Belongs To Daddy
TTITLE15=I've Got You Under My Skin
TTITLE16=Love For Sale
TTITLE17=I Love Paris
EXTD=YEAR: 2008
EXTT0=
EXTT1=
EXTT2=
EXTT3=
EXTT4=
EXTT5=
EXTT6=
EXTT7=
EXTT8=
EXTT9=
EXTT10=
EXTT11=
EXTT12=
EXTT13=
EXTT14=
EXTT15=
EXTT16=
EXTT17=
PLAYORDER=
